<svg width="75" height="167" viewBox="0 0 75 167" fill="none" xmlns="http://www.w3.org/2000/svg">
<path d="M37.6704 52.6849C41.7875 52.6849 45.0278 53.8308 47.5575 55.8237C50.0905 57.8191 51.9293 60.6779 53.2147 64.1314C55.7881 71.0458 56.1237 80.2905 55.4145 89.5703C54.7058 98.8432 52.9567 108.12 51.3837 115.081C50.5974 118.561 49.8554 121.46 49.3102 123.49C49.0375 124.504 48.8141 125.301 48.6589 125.845C48.5813 126.116 48.5207 126.324 48.4796 126.464C48.4765 126.475 48.4735 126.485 48.4707 126.495H25.5964C25.594 126.486 25.5916 126.477 25.5891 126.468C25.5504 126.328 25.4934 126.12 25.4205 125.848C25.2746 125.305 25.0648 124.508 24.8096 123.494C24.2992 121.464 23.6071 118.565 22.8806 115.085C21.4272 108.124 19.8375 98.8474 19.2882 89.5747C18.7384 80.2951 19.2328 71.0501 21.9253 64.135C23.2702 60.6809 25.1586 57.821 27.7271 55.8247C30.2925 53.8308 33.5533 52.6849 37.6704 52.6849Z" fill="black" stroke="black" stroke-width="0.509033"/>
<path d="M66.8333 38.8806C66.8333 44.785 63.4748 49.5727 58.2462 52.8958C53.0146 56.2208 45.929 58.064 38.547 58.064C31.1644 58.064 23.7422 56.2205 18.1742 52.8921C12.606 49.5637 8.92541 44.7746 8.92541 38.8806C8.92541 32.9705 12.624 27.0051 18.2034 22.5055C23.7784 18.0094 31.1924 15.0107 38.547 15.0107C45.8998 15.0107 52.9776 18.0081 58.217 22.5006C63.4593 26.9956 66.8333 32.9617 66.8333 38.8806Z" fill="black" stroke="black" stroke-width="0.509033"/>
<circle cx="24.8602" cy="34.8749" r="5.58717" fill="white" stroke="black" stroke-width="0.509033"/>
<circle cx="50.7304" cy="34.8749" r="5.58717" fill="white" stroke="black" stroke-width="0.509033"/>
<circle cx="50.7307" cy="34.8749" r="3.08359" fill="black" stroke="black" stroke-width="0.509033"/>
<circle cx="24.8596" cy="34.8749" r="3.08359" fill="black" stroke="black" stroke-width="0.509033"/>
<path d="M38.4357 45.9397C38.1347 46.4032 37.4561 46.4032 37.1551 45.9397L35.778 43.8196C35.4481 43.3117 35.8127 42.6402 36.4184 42.6402H39.1724C39.7781 42.6402 40.1427 43.3117 39.8128 43.8196L38.4357 45.9397Z" fill="#EFA6A6" stroke="black" stroke-width="0.509033"/>
<path d="M10.0415 8.78678C9.94343 8.16822 10.5908 7.70115 11.1469 7.98923L27.8125 16.6227C28.3177 16.8844 28.3695 17.587 27.9081 17.9199L14.1818 27.824C13.7203 28.1569 13.07 27.8863 12.9809 27.3244L10.0415 8.78678Z" fill="black" stroke="black" stroke-width="0.509033"/>
<path d="M64.0092 7.89622C64.5555 7.59007 65.2178 8.03568 65.14 8.65713L62.8096 27.2811C62.739 27.8456 62.0978 28.1374 61.6257 27.8197L47.5823 18.3707C47.1102 18.0531 47.1389 17.3492 47.6353 17.0711L64.0092 7.89622Z" fill="black" stroke="black" stroke-width="0.509033"/>
<path d="M19.0885 125.477C19.0885 121.822 22.0512 118.859 25.7059 118.859C29.3606 118.859 32.3233 121.822 32.3233 125.477V126.495H19.0885V125.477Z" fill="black" stroke="black" stroke-width="0.509033"/>
<path d="M40.4679 69.993C57.6403 70.1298 71.5189 84.0929 71.5189 101.298V106.919C71.5189 117.73 62.7546 126.495 51.9433 126.495H40.4679L40.4679 69.993Z" fill="black" stroke="black" stroke-width="0.509033"/>
<path d="M66.4817 110.585C66.4817 110.585 68.6233 133.196 66.4013 144.939C64.3357 155.855 58.4834 169.102 51.9821 156.041C46.5343 145.096 27.2994 149.908 27.2994 149.908" stroke="black" stroke-width="10.1807" stroke-linecap="round"/>
</svg>
