<svg width="250" height="217" viewBox="0 0 250 217" fill="none" xmlns="http://www.w3.org/2000/svg">
<path d="M214.452 59.5472C215.176 59.5472 215.892 59.7045 216.549 60.0082L239.576 70.646C243.542 72.4779 243.417 78.1569 239.374 79.8122L216.462 89.1941C215.86 89.4403 215.217 89.5669 214.567 89.5669H31.6116C30.8871 89.5669 30.1712 89.4095 29.5135 89.1054L9.23228 79.7294C5.46408 77.9873 5.33737 72.6775 9.01819 70.7577L29.4252 60.114C30.139 59.7417 30.9323 59.5472 31.7374 59.5472H214.452Z" fill="black"/>
<path d="M214.452 108.76C215.176 108.76 215.892 108.917 216.549 109.221L239.576 119.859C243.542 121.691 243.417 127.37 239.374 129.025L216.462 138.407C215.86 138.653 215.217 138.78 214.567 138.78H31.6116C30.8871 138.78 30.1712 138.622 29.5135 138.318L9.23228 128.942C5.46408 127.2 5.33737 121.89 9.01819 119.97L29.4252 109.327C30.139 108.954 30.9323 108.76 31.7374 108.76H214.452Z" fill="black"/>
<path d="M214.452 157.972C215.176 157.972 215.892 158.13 216.549 158.433L239.576 169.071C243.542 170.903 243.417 176.582 239.374 178.237L216.462 187.619C215.86 187.865 215.217 187.992 214.567 187.992H31.6116C30.8871 187.992 30.1712 187.835 29.5135 187.531L9.23228 178.155C5.46408 176.413 5.33737 171.103 9.01819 169.183L29.4252 158.539C30.139 158.167 30.9323 157.972 31.7374 157.972H214.452Z" fill="black"/>
<path d="M87.5977 210.551C87.5977 213.313 85.3591 215.551 82.5977 215.551H71.6836H62.578C59.8166 215.551 57.578 213.313 57.578 210.551V31.6116C57.578 30.8871 57.7354 30.1712 58.0395 29.5135L67.4155 9.23228C69.1576 5.46408 74.4674 5.33736 76.3872 9.01819L87.0309 29.4251C87.4032 30.139 87.5977 30.9323 87.5977 31.7374V210.551Z" fill="black"/>
<path d="M144.193 210.551C144.193 213.313 141.955 215.551 139.193 215.551H128.279H119.174C116.412 215.551 114.174 213.313 114.174 210.551V31.6116C114.174 30.8871 114.331 30.1712 114.635 29.5135L124.011 9.23228C125.753 5.46408 131.063 5.33736 132.983 9.01819L143.627 29.4251C143.999 30.139 144.193 30.9323 144.193 31.7374V210.551Z" fill="black"/>
<path d="M200.787 211.535C200.787 214.297 198.549 216.535 195.787 216.535H184.873H175.767C173.006 216.535 170.767 214.297 170.767 211.535V32.5959C170.767 31.8713 170.925 31.1554 171.229 30.4977L180.605 10.2165C182.347 6.44833 187.657 6.32161 189.577 10.0024L200.22 30.4094C200.593 31.1233 200.787 31.9165 200.787 32.7216V211.535Z" fill="black"/>
</svg>
