<svg width="150" height="199" viewBox="0 0 150 199" fill="none" xmlns="http://www.w3.org/2000/svg">
<path d="M140.957 62.6175C137.594 28.978 108.863 4 74.8655 4C40.0508 4 10.8892 30.1454 8.172 64.7057C6.46912 86.3645 4.90875 110.547 4.2859 132.371C3.66034 154.29 3.99298 173.518 5.97821 185.43C6.2074 186.805 6.48355 187.602 6.68539 188.029C6.85542 187.968 7.08333 187.873 7.3761 187.724C8.21056 187.299 9.22595 186.621 10.4578 185.692C11.461 184.936 12.4978 184.098 13.6189 183.192C13.8687 182.99 14.1227 182.785 14.3815 182.576C15.7664 181.46 17.2601 180.274 18.7796 179.202C21.628 177.191 25.3591 174.979 29.3069 175.012C33.1634 175.044 36.3182 175.823 38.584 177.89C40.8097 179.921 41.4464 182.579 41.8129 184.261C41.8869 184.6 41.9529 184.913 42.0141 185.203C42.3107 186.61 42.497 187.493 42.9548 188.37C43.3603 189.147 44.0733 190.045 45.9291 190.845C46.0986 190.808 46.5378 190.645 47.3743 190.011C48.8686 188.878 50.5257 187.072 52.6096 184.789L52.6319 184.765C54.5682 182.644 56.8516 180.143 59.2732 178.267C61.6617 176.416 64.8764 174.619 68.6311 175.036C73.3591 175.562 76.8343 177.219 79.3526 179.754C81.7796 182.198 82.9831 185.134 83.7968 187.507C84.0932 188.372 84.3293 189.115 84.5378 189.771C84.9807 191.165 85.2985 192.166 85.8037 193.098C86.3216 194.053 86.7522 194.38 87.6108 194.526C89.5896 194.863 92.1496 194.32 95.3508 192.752C98.5016 191.208 101.808 188.904 105.119 186.375C106.439 185.367 107.833 184.262 109.207 183.173C111.061 181.704 112.878 180.265 114.425 179.131C115.84 178.093 117.272 177.124 118.635 176.402C119.906 175.729 121.583 175.012 123.379 175.012C127.034 175.012 129.339 177.55 130.644 179.478C131.925 181.371 132.975 183.768 133.847 185.758C133.893 185.864 133.939 185.969 133.985 186.072C134.976 188.332 135.78 190.102 136.649 191.336C137.158 192.058 137.468 192.285 137.585 192.346C138.06 192.332 138.808 192.12 139.84 190.647C140.97 189.034 142.069 186.374 143.003 182.532C144.859 174.899 145.774 163.89 145.962 150.793C146.339 124.688 143.829 91.3415 140.957 62.6175ZM45.8448 190.852C45.8439 190.855 45.8611 190.857 45.8991 190.851C45.8647 190.846 45.8456 190.849 45.8448 190.852ZM137.638 192.366C137.638 192.364 137.624 192.357 137.597 192.352C137.624 192.366 137.638 192.368 137.638 192.366Z" fill="white" stroke="black" stroke-width="8"/>
<path d="M131.162 117.808C131.162 117.808 118.814 132.498 103.526 132.316C88.2777 132.134 118.571 96.9364 118.571 96.9364" stroke="black" stroke-width="8" stroke-linecap="round"/>
<path d="M36.621 117.351C36.621 117.351 48.7323 132.236 64.0211 132.299C79.2705 132.361 49.5441 96.6835 49.5441 96.6835" stroke="black" stroke-width="8" stroke-linecap="round"/>
<ellipse cx="14.5" cy="12.5" rx="14.5" ry="12.5" transform="matrix(-1 0 0 1 76 55)" fill="black"/>
<ellipse cx="14.6818" cy="17.512" rx="14.6818" ry="17.512" transform="matrix(-1 0 0 1 119.134 45.2836)" fill="black"/>
<path d="M89.7549 88.5314L76.6517 87.6501" stroke="black" stroke-width="8" stroke-linecap="round"/>
</svg>
