<svg width="150" height="326" viewBox="0 0 150 326" fill="none" xmlns="http://www.w3.org/2000/svg">
<path d="M138.375 63.1289C136.037 29.6713 108.086 4 74.4717 4C40.373 4 12.1773 30.3691 10.3151 64.3565C6.24222 138.691 1.08719 256.522 6.01218 305.022C6.28102 307.67 6.63756 309.441 6.99066 310.573C7.75761 309.868 8.67451 308.843 9.75487 307.506C10.7705 306.249 11.8215 304.854 12.9434 303.366C13.1922 303.036 13.4445 302.702 13.7006 302.363C15.0825 300.535 16.5589 298.612 18.0583 296.875C19.5416 295.156 21.1721 293.472 22.8959 292.198C24.5685 290.962 26.7745 289.779 29.3281 289.813C33.7732 289.874 37.1208 291.466 39.2144 294.601C41.0147 297.296 41.5236 300.692 41.8699 303.3C41.9106 303.607 41.9503 303.909 41.9893 304.206C42.6596 309.316 43.1409 312.984 45.933 315.43C46.1463 315.216 46.3931 314.941 46.673 314.592C48.2604 312.616 50.0046 309.488 52.068 305.778C54.0174 302.273 56.2338 298.29 58.5788 295.307C59.7557 293.811 61.1348 292.341 62.7306 291.295C64.3687 290.221 66.4948 289.438 68.907 289.878C74.1919 290.842 77.6741 293.849 79.9369 297.588C82.087 301.14 83.1582 305.381 83.9285 309.068C84.1709 310.228 84.3822 311.318 84.5811 312.345C85.0649 314.841 85.4759 316.961 86.0853 318.807C86.9558 321.443 87.7178 321.814 88.0159 321.897C89.2141 322.232 91.2849 321.812 94.6041 319.143C97.7517 316.612 101.081 312.808 104.42 308.622C105.771 306.927 107.173 305.103 108.548 303.315C110.384 300.927 112.169 298.605 113.714 296.747C115.11 295.067 116.525 293.493 117.883 292.313C118.565 291.72 119.33 291.139 120.16 290.691C120.967 290.255 122.077 289.813 123.379 289.813C125.831 289.813 127.562 291.221 128.606 292.467C129.645 293.708 130.421 295.258 131.029 296.734C132.202 299.577 133.179 303.237 134.073 306.582L134.186 307.006C135.159 310.646 136.047 313.895 137.054 316.243C137.361 316.958 137.636 317.484 137.867 317.858C137.881 317.842 137.895 317.825 137.909 317.808C138.509 317.095 139.248 315.777 140.012 313.626C141.529 309.355 142.773 302.885 143.718 294.473C145.598 277.728 146.191 254.29 145.948 227.76C145.463 174.754 141.65 109.999 138.375 63.1289ZM7.54243 311.87C7.54263 311.869 7.53531 311.858 7.51985 311.84C7.5345 311.862 7.54224 311.871 7.54243 311.87ZM137.372 318.295C137.372 318.297 137.385 318.293 137.411 318.279C137.385 318.286 137.372 318.293 137.372 318.295Z" fill="white" stroke="black" stroke-width="8"/>
<path d="M33.5017 89.1078C33.5017 89.1078 47.4728 65.9006 62.7042 67.2464C77.8964 68.5888 43.7155 124.147 43.7155 124.147" stroke="black" stroke-width="8" stroke-linecap="round"/>
<path d="M115.772 90.3147C115.772 90.3147 104.227 65.6111 88.9444 65.1565C73.7014 64.7031 102.072 123.93 102.072 123.93" stroke="black" stroke-width="8" stroke-linecap="round"/>
<path d="M80.1035 104.447L67.0004 103" stroke="black" stroke-width="8" stroke-linecap="round"/>
</svg>
