<svg width="150" height="199" viewBox="0 0 150 199" fill="none" xmlns="http://www.w3.org/2000/svg">
<path d="M9.04293 62.6175C12.4058 28.978 41.1369 4 75.1345 4C109.949 4 139.111 30.1454 141.828 64.7057C143.531 86.3645 145.091 110.547 145.714 132.371C146.34 154.29 146.007 173.518 144.022 185.43C143.793 186.805 143.516 187.602 143.315 188.029C143.145 187.968 142.917 187.873 142.624 187.724C141.789 187.299 140.774 186.621 139.542 185.692C138.539 184.936 137.502 184.098 136.381 183.192C136.131 182.99 135.877 182.785 135.619 182.576C134.234 181.46 132.74 180.274 131.22 179.202C128.372 177.191 124.641 174.979 120.693 175.012C116.837 175.044 113.682 175.823 111.416 177.89C109.19 179.921 108.554 182.579 108.187 184.261C108.113 184.6 108.047 184.913 107.986 185.203C107.689 186.61 107.503 187.493 107.045 188.37C106.64 189.147 105.927 190.045 104.071 190.845C103.901 190.808 103.462 190.645 102.626 190.011C101.131 188.878 99.4743 187.072 97.3904 184.789L97.3681 184.765C95.4318 182.644 93.1484 180.143 90.7268 178.267C88.3383 176.416 85.1236 174.619 81.3689 175.036C76.6409 175.562 73.1657 177.219 70.6474 179.754C68.2204 182.198 67.0169 185.134 66.2032 187.507C65.9068 188.372 65.6707 189.115 65.4622 189.771C65.0193 191.165 64.7015 192.166 64.1963 193.098C63.6784 194.053 63.2478 194.38 62.3892 194.526C60.4104 194.863 57.8504 194.32 54.6492 192.752C51.4984 191.208 48.1916 188.904 44.8811 186.375C43.5615 185.367 42.1669 184.262 40.7926 183.173C38.9388 181.704 37.1219 180.265 35.5751 179.131C34.1597 178.093 32.7282 177.124 31.3652 176.402C30.0942 175.729 28.4166 175.012 26.6212 175.012C22.9659 175.012 20.6613 177.55 19.3563 179.478C18.075 181.371 17.0248 183.768 16.1531 185.758C16.1067 185.864 16.0608 185.969 16.0155 186.072C15.0238 188.332 14.2196 190.102 13.351 191.336C12.842 192.058 12.5322 192.285 12.4152 192.346C11.9402 192.332 11.1919 192.12 10.16 190.647C9.02994 189.034 7.93143 186.374 6.99705 182.532C5.14092 174.899 4.22636 163.89 4.03756 150.793C3.66124 124.688 6.17144 91.3415 9.04293 62.6175ZM104.155 190.852C104.156 190.855 104.139 190.857 104.101 190.851C104.135 190.846 104.154 190.849 104.155 190.852ZM12.3619 192.366C12.3619 192.364 12.3757 192.357 12.4032 192.352C12.3756 192.366 12.3619 192.368 12.3619 192.366Z" fill="white" stroke="black" stroke-width="8"/>
<path d="M18.838 117.808C18.838 117.808 31.186 132.498 46.4738 132.316C61.7223 132.134 31.4289 96.9364 31.4289 96.9364" stroke="black" stroke-width="8" stroke-linecap="round"/>
<path d="M113.379 117.351C113.379 117.351 101.268 132.236 85.9789 132.299C70.7295 132.361 100.456 96.6835 100.456 96.6835" stroke="black" stroke-width="8" stroke-linecap="round"/>
<ellipse cx="88.3556" cy="62.4418" rx="14.6818" ry="17.512" fill="black"/>
<ellipse cx="45.548" cy="62.7956" rx="14.6818" ry="17.512" fill="black"/>
<path d="M60.2305 88.0908H73.3632" stroke="black" stroke-width="8" stroke-linecap="round"/>
</svg>
