<svg width="281" height="233" viewBox="0 0 281 233" fill="none" xmlns="http://www.w3.org/2000/svg">
<mask id="path-1-inside-1_332_479" fill="white">
<path fill-rule="evenodd" clip-rule="evenodd" d="M224.428 98.0528C236.526 58.9424 241.734 0 163.216 0C87.0547 0 58.5793 48.7364 47.97 83.0289C26.2146 74.0087 7.88131 72.9714 1.94445 81.8989C-6.28563 94.2747 12.3568 121.214 43.7572 142.71C46.7218 176.574 52.8513 230.125 61.7168 226C71.8848 221.269 77.9137 212.755 82.8237 205.821C87.5885 199.093 91.2997 193.852 96.7171 195C104.732 196.699 115.401 215.565 120.602 225.68C121.524 227.473 124.477 227.021 124.865 225.042C126.963 214.324 132.205 195 142.717 195C147.354 195 175.281 220.68 187.733 232.349C189.263 233.784 191.856 232.147 191.28 230.131C187.391 216.514 181.399 190 193.717 190C206.693 190 239.812 199.196 253.575 203.187C255.458 203.734 256.858 201.607 255.544 200.151C250.036 194.047 239.523 183.352 226.717 175C219.121 170.047 214.798 163.675 212.413 157.363C214.655 156.807 216.916 156.2 219.191 155.543C256.863 144.661 283.985 124.011 279.77 109.42C276.34 97.5471 253.219 93.3442 224.428 98.0528Z"/>
</mask>
<path fill-rule="evenodd" clip-rule="evenodd" d="M224.428 98.0528C236.526 58.9424 241.734 0 163.216 0C87.0547 0 58.5793 48.7364 47.97 83.0289C26.2146 74.0087 7.88131 72.9714 1.94445 81.8989C-6.28563 94.2747 12.3568 121.214 43.7572 142.71C46.7218 176.574 52.8513 230.125 61.7168 226C71.8848 221.269 77.9137 212.755 82.8237 205.821C87.5885 199.093 91.2997 193.852 96.7171 195C104.732 196.699 115.401 215.565 120.602 225.68C121.524 227.473 124.477 227.021 124.865 225.042C126.963 214.324 132.205 195 142.717 195C147.354 195 175.281 220.68 187.733 232.349C189.263 233.784 191.856 232.147 191.28 230.131C187.391 216.514 181.399 190 193.717 190C206.693 190 239.812 199.196 253.575 203.187C255.458 203.734 256.858 201.607 255.544 200.151C250.036 194.047 239.523 183.352 226.717 175C219.121 170.047 214.798 163.675 212.413 157.363C214.655 156.807 216.916 156.2 219.191 155.543C256.863 144.661 283.985 124.011 279.77 109.42C276.34 97.5471 253.219 93.3442 224.428 98.0528Z" fill="white"/>
<path d="M224.428 98.0528L216.785 95.6887L212.967 108.034L225.719 105.948L224.428 98.0528ZM47.97 83.0289L44.9059 90.4189L53.0173 93.7821L55.6126 85.3934L47.97 83.0289ZM1.94445 81.8989L-4.71704 77.4689H-4.71704L1.94445 81.8989ZM43.7572 142.71L51.7267 142.013L51.3969 138.245L48.2764 136.109L43.7572 142.71ZM61.7168 226L58.3417 218.747H58.3417L61.7168 226ZM82.8237 205.821L76.2949 201.198L82.8237 205.821ZM96.7171 195L98.3757 187.174L98.3756 187.174L96.7171 195ZM120.602 225.68L127.717 222.022L127.716 222.022L120.602 225.68ZM124.865 225.042L117.014 223.505L124.865 225.042ZM187.733 232.349L182.262 238.187L187.733 232.349ZM191.28 230.131L198.973 227.933V227.933L191.28 230.131ZM253.575 203.187L251.346 210.871H251.346L253.575 203.187ZM255.544 200.151L249.605 205.51L249.605 205.51L255.544 200.151ZM226.717 175L231.087 168.299L231.087 168.299L226.717 175ZM212.413 157.363L210.486 149.599L201.747 151.767L204.929 160.19L212.413 157.363ZM219.191 155.543L221.411 163.229L219.191 155.543ZM279.77 109.42L287.456 107.2V107.2L279.77 109.42ZM232.071 100.417C238.212 80.5619 243.261 53.8836 235.338 31.6721C231.265 20.2552 223.79 10.1064 211.683 2.93711C199.719 -4.14662 183.786 -8 163.216 -8V8C181.905 8 194.765 11.5144 203.531 16.7046C212.151 21.8091 217.34 28.8404 220.268 37.0479C226.346 54.0852 222.742 76.4333 216.785 95.6887L232.071 100.417ZM163.216 -8C123.257 -8 95.1338 4.85361 75.6048 22.7579C56.2483 40.5041 45.8865 62.6957 40.3274 80.6645L55.6126 85.3934C60.6628 69.0695 69.8433 49.7467 86.4173 34.5516C102.819 19.5146 127.014 8 163.216 8V-8ZM51.034 75.639C39.6323 70.9115 28.6272 68.0523 19.2945 67.738C10.3509 67.4369 0.597793 69.4768 -4.71704 77.4689L8.60593 86.3288C9.22796 85.3935 11.6099 83.4883 18.756 83.729C25.5131 83.9565 34.5523 86.1261 44.9059 90.4189L51.034 75.639ZM-4.71704 77.4689C-8.403 83.0116 -8.58932 89.5057 -7.19807 95.4283C-5.81094 101.333 -2.70857 107.457 1.40148 113.423C9.6504 125.396 22.9501 138.161 39.238 149.312L48.2764 136.109C33.1639 125.763 21.4421 114.31 14.5773 104.346C11.1304 99.3426 9.15282 95.0679 8.37794 91.7693C7.6072 88.4883 8.17685 86.9741 8.60593 86.3288L-4.71704 77.4689ZM35.7877 143.408C37.2738 160.384 39.571 182.524 42.6453 199.988C44.1663 208.628 45.9568 216.604 48.0988 222.303C49.1218 225.025 50.5221 228.065 52.5745 230.346C53.6449 231.535 55.2891 232.966 57.6041 233.722C60.1547 234.554 62.7894 234.325 65.092 233.253L58.3417 218.747C59.5361 218.191 61.0839 218.027 62.5693 218.511C63.8191 218.919 64.4196 219.589 64.4682 219.643C64.4768 219.653 63.9206 218.922 63.076 216.674C61.4826 212.435 59.8932 205.679 58.403 197.214C55.4551 180.468 53.2052 158.901 51.7267 142.013L35.7877 143.408ZM65.092 233.253C77.4391 227.508 84.5577 217.215 89.3525 210.445L76.2949 201.198C71.2697 208.294 66.3305 215.029 58.3417 218.747L65.092 233.253ZM89.3525 210.445C91.9105 206.832 93.4953 204.664 94.9177 203.367C95.5345 202.804 95.7823 202.735 95.6893 202.77C95.484 202.845 95.2016 202.856 95.0586 202.826L98.3756 187.174C92.216 185.868 87.4073 188.56 84.1337 191.547C81.1549 194.265 78.5018 198.081 76.2949 201.198L89.3525 210.445ZM95.0586 202.826C94.7753 202.766 95.5899 202.929 97.4981 204.8C99.2109 206.48 101.137 208.869 103.153 211.76C107.17 217.52 110.947 224.398 113.487 229.338L127.716 222.022C125.056 216.847 120.898 209.235 116.277 202.608C113.974 199.306 111.404 196.028 108.7 193.376C106.191 190.916 102.666 188.083 98.3757 187.174L95.0586 202.826ZM113.487 229.338C115.885 234.002 120.699 235.204 124.129 234.686C127.547 234.169 131.725 231.637 132.716 226.579L117.014 223.505C117.617 220.426 120.124 219.109 121.739 218.865C123.364 218.619 126.24 219.151 127.717 222.022L113.487 229.338ZM132.716 226.579C133.726 221.419 135.413 214.67 137.882 209.392C139.121 206.743 140.347 204.929 141.411 203.877C141.913 203.381 142.27 203.163 142.458 203.074C142.612 203 142.674 203 142.717 203V187C137.395 187 133.186 189.51 130.164 192.497C127.224 195.403 125.037 199.09 123.389 202.612C120.085 209.676 118.102 217.948 117.014 223.505L132.716 226.579ZM142.717 203C141.984 203 141.451 202.88 141.215 202.819C140.956 202.752 140.807 202.69 140.796 202.685C140.786 202.681 140.977 202.763 141.414 203.021C142.279 203.53 143.532 204.381 145.166 205.603C148.404 208.023 152.551 211.453 157.064 215.352C166.057 223.123 176.058 232.372 182.262 238.187L193.203 226.512C186.956 220.657 176.767 211.232 167.525 203.245C162.919 199.266 158.437 195.546 154.745 192.787C152.915 191.419 151.128 190.172 149.53 189.232C148.735 188.764 147.838 188.283 146.904 187.897C146.132 187.578 144.587 187 142.717 187V203ZM182.262 238.187C186.235 241.91 191.401 241.287 194.55 239.309C197.68 237.345 200.435 233.053 198.973 227.933L183.588 232.328C182.702 229.225 184.448 226.76 186.043 225.759C187.657 224.745 190.761 224.223 193.203 226.512L182.262 238.187ZM198.973 227.933C197.056 221.223 194.803 211.915 194.41 204.533C194.206 200.71 194.571 198.42 194.992 197.398C195.154 197.003 195.147 197.245 194.7 197.578C194.172 197.972 193.7 198 193.717 198V182C190.655 182 187.675 182.857 185.132 184.754C182.671 186.59 181.141 189.009 180.194 191.313C178.395 195.688 178.192 200.878 178.432 205.385C178.927 214.665 181.615 225.421 183.588 232.328L198.973 227.933ZM193.717 198C199.095 198 209.69 200.037 221.478 202.875C232.928 205.631 244.515 208.89 251.346 210.871L255.803 195.504C248.871 193.494 237.018 190.159 225.223 187.319C213.768 184.561 201.315 182 193.717 182V198ZM251.346 210.871C255.846 212.176 260.216 210.228 262.458 206.791C264.736 203.301 264.725 198.384 261.483 194.791L249.605 205.51C247.677 203.374 247.623 200.248 249.058 198.048C250.458 195.903 253.187 194.746 255.803 195.504L251.346 210.871ZM261.483 194.791C255.768 188.458 244.722 177.192 231.087 168.299L222.347 181.701C234.323 189.512 244.304 199.636 249.605 205.51L261.483 194.791ZM231.087 168.299C225.072 164.376 221.751 159.444 219.897 154.536L204.929 160.19C207.844 167.907 213.171 175.717 222.347 181.701L231.087 168.299ZM216.97 147.858C214.793 148.487 212.63 149.067 210.486 149.599L214.34 165.128C216.68 164.547 219.039 163.914 221.411 163.229L216.97 147.858ZM272.084 111.64C272.303 112.398 272.39 114.074 270.552 117.083C268.711 120.099 265.361 123.686 260.342 127.507C250.347 135.117 235.104 142.619 216.97 147.858L221.411 163.229C240.949 157.585 258.103 149.321 270.034 140.238C275.977 135.713 280.972 130.721 284.208 125.421C287.448 120.115 289.344 113.737 287.456 107.2L272.084 111.64ZM225.719 105.948C239.519 103.691 251.477 103.664 260.053 105.365C269.32 107.204 271.709 110.34 272.084 111.64L287.456 107.2C284.402 96.6267 273.516 91.7249 263.167 89.6713C252.127 87.4806 238.129 87.7059 223.137 90.1577L225.719 105.948Z" fill="black" mask="url(#path-1-inside-1_332_479)"/>
<ellipse cx="109.219" cy="69.137" rx="14.5" ry="29.5" transform="rotate(7.48253 109.219 69.137)" fill="black"/>
<ellipse cx="161.767" cy="76.0389" rx="14.5" ry="29.5" transform="rotate(7.48253 161.767 76.0389)" fill="black"/>
<ellipse cx="129" cy="109.5" rx="11" ry="11.5" fill="black"/>
</svg>
