<svg width="153" height="179" viewBox="0 0 153 179" fill="none" xmlns="http://www.w3.org/2000/svg">
<mask id="path-1-inside-1_332_487" fill="white">
<path fill-rule="evenodd" clip-rule="evenodd" d="M144 144.761C94.8471 144.761 55.0004 103.795 55.0004 53.2607C55.0004 36.7054 59.277 21.177 66.7564 7.77945C68.9735 3.80816 65.6843 -1.19121 61.3722 0.255156C25.7442 12.2054 0.000442505 46.6422 0.000442505 87.2607C0.000442505 137.795 39.8471 178.761 89.0004 178.761C113.047 178.761 134.866 168.956 150.882 153.024C154.106 149.816 151.133 144.589 146.587 144.723C145.728 144.748 144.865 144.761 144 144.761Z"/>
</mask>
<path fill-rule="evenodd" clip-rule="evenodd" d="M144 144.761C94.8471 144.761 55.0004 103.795 55.0004 53.2607C55.0004 36.7054 59.277 21.177 66.7564 7.77945C68.9735 3.80816 65.6843 -1.19121 61.3722 0.255156C25.7442 12.2054 0.000442505 46.6422 0.000442505 87.2607C0.000442505 137.795 39.8471 178.761 89.0004 178.761C113.047 178.761 134.866 168.956 150.882 153.024C154.106 149.816 151.133 144.589 146.587 144.723C145.728 144.748 144.865 144.761 144 144.761Z" fill="white"/>
<path d="M150.882 153.024L156.524 158.696L150.882 153.024ZM146.587 144.723L146.821 152.719L146.587 144.723ZM61.3722 0.255156L63.9162 7.83987L61.3722 0.255156ZM63.0004 53.2607C63.0004 99.5869 99.4728 136.761 144 136.761V152.761C90.2214 152.761 47.0004 108.003 47.0004 53.2607H63.0004ZM73.7416 11.6791C66.9148 23.9077 63.0004 38.0968 63.0004 53.2607H47.0004C47.0004 35.314 51.6393 18.4462 59.7712 3.87984L73.7416 11.6791ZM63.9162 7.83987C31.564 18.6913 8.00044 50.0628 8.00044 87.2607H-7.99956C-7.99956 43.2216 19.9243 5.71946 58.8281 -7.32956L63.9162 7.83987ZM8.00044 87.2607C8.00044 133.587 44.4728 170.761 89.0004 170.761V186.761C35.2214 186.761 -7.99956 142.003 -7.99956 87.2607H8.00044ZM89.0004 170.761C110.817 170.761 130.639 161.877 145.24 147.352L156.524 158.696C139.093 176.036 115.277 186.761 89.0004 186.761V170.761ZM144 136.761C144.787 136.761 145.571 136.749 146.352 136.726L146.821 152.719C145.884 152.747 144.944 152.761 144 152.761V136.761ZM145.24 147.352C144.777 147.812 144.359 148.566 144.259 149.477C144.166 150.315 144.372 150.98 144.601 151.407C145.025 152.196 145.857 152.748 146.821 152.719L146.352 136.726C151.862 136.565 156.454 139.663 158.695 143.834C161.036 148.191 160.99 154.253 156.524 158.696L145.24 147.352ZM59.7712 3.87984C59.2991 4.72551 59.3932 5.75675 59.936 6.54052C60.2261 6.95939 60.7454 7.45903 61.5555 7.76034C62.4342 8.08714 63.3034 8.0454 63.9162 7.83987L58.8281 -7.32956C64.7966 -9.33148 70.2529 -6.66489 73.0895 -2.56915C75.8007 1.34553 76.4308 6.86211 73.7416 11.6791L59.7712 3.87984Z" fill="black" mask="url(#path-1-inside-1_332_487)"/>
</svg>
