<svg width="67" height="93" viewBox="0 0 67 93" fill="none" xmlns="http://www.w3.org/2000/svg">
<g filter="url(#filter0_i_337_1068)">
<path d="M43.6333 33.447L21.717 35.3645L25.589 79.6213C26.1461 85.9892 31.7599 90.6997 38.1278 90.1426C45.8127 89.4703 50.7524 81.5797 48.7194 74.1382C47.2987 68.9381 46.0528 63.1822 45.8122 58.3519C45.3167 48.4078 43.6333 33.447 43.6333 33.447Z" fill="white"/>
</g>
<g filter="url(#filter1_i_337_1068)">
<path d="M61.3465 29.3877C59.9265 13.1573 45.618 1.15112 29.3876 2.57109C13.1572 3.99107 1.15102 18.2995 2.571 34.5299L3.32767 43.1787C3.51146 45.2794 5.3634 46.8334 7.4641 46.6496L58.6323 42.173C60.733 41.9892 62.2869 40.1372 62.1032 38.0365L61.3465 29.3877Z" fill="#D81E1E"/>
</g>
<circle cx="2.5" cy="2.5" r="2.5" transform="matrix(-0.996195 0.0871557 0.0871557 0.996195 52.5986 32.6626)" fill="white"/>
<circle cx="2.5" cy="2.5" r="2.5" transform="matrix(-0.996195 0.0871557 0.0871557 0.996195 50.4697 19.7993)" fill="white"/>
<circle cx="2.5" cy="2.5" r="2.5" transform="matrix(-0.996195 0.0871557 0.0871557 0.996195 41.0303 26.648)" fill="white"/>
<circle cx="2.5" cy="2.5" r="2.5" transform="matrix(-0.996195 0.0871557 0.0871557 0.996195 39.0752 15.777)" fill="white"/>
<circle cx="2.5" cy="2.5" r="2.5" transform="matrix(-0.996195 0.0871557 0.0871557 0.996195 46.4346 8.10638)" fill="white"/>
<circle cx="2.5" cy="2.5" r="2.5" transform="matrix(-0.996195 0.0871557 0.0871557 0.996195 22.7129 35.2773)" fill="white"/>
<circle cx="2.5" cy="2.5" r="2.5" transform="matrix(-0.996195 0.0871557 0.0871557 0.996195 57.9658 25.1663)" fill="white"/>
<circle cx="2.5" cy="2.5" r="2.5" transform="matrix(-0.996195 0.0871557 0.0871557 0.996195 16.9473 26.7473)" fill="white"/>
<circle cx="3.5" cy="3.5" r="3.5" transform="matrix(-0.996195 0.0871557 0.0871557 0.996195 33.1357 5.25464)" fill="white"/>
<circle cx="3.5" cy="3.5" r="3.5" transform="matrix(-0.996195 0.0871557 0.0871557 0.996195 30.458 20.5462)" fill="white"/>
<circle cx="3.5" cy="3.5" r="3.5" transform="matrix(-0.996195 0.0871557 0.0871557 0.996195 12.751 36.1489)" fill="white"/>
<circle cx="3.5" cy="3.5" r="3.5" transform="matrix(-0.996195 0.0871557 0.0871557 0.996195 19.7119 12.452)" fill="white"/>
<circle cx="2.5" cy="2.5" r="2.5" transform="matrix(-0.996195 0.0871557 0.0871557 0.996195 36.7471 35.0533)" fill="white"/>
<defs>
<filter id="filter0_i_337_1068" x="21.7168" y="33.4471" width="27.4609" height="60.7403" filterUnits="userSpaceOnUse" color-interpolation-filters="sRGB">
<feFlood flood-opacity="0" result="BackgroundImageFix"/>
<feBlend mode="normal" in="SourceGraphic" in2="BackgroundImageFix" result="shape"/>
<feColorMatrix in="SourceAlpha" type="matrix" values="0 0 0 0 0 0 0 0 0 0 0 0 0 0 0 0 0 0 127 0" result="hardAlpha"/>
<feOffset dy="4"/>
<feGaussianBlur stdDeviation="5"/>
<feComposite in2="hardAlpha" operator="arithmetic" k2="-1" k3="1"/>
<feColorMatrix type="matrix" values="0 0 0 0 0 0 0 0 0 0 0 0 0 0 0 0 0 0 0.25 0"/>
<feBlend mode="normal" in2="shape" result="effect1_innerShadow_337_1068"/>
</filter>
<filter id="filter1_i_337_1068" x="2.45703" y="2.45706" width="59.6611" height="48.2073" filterUnits="userSpaceOnUse" color-interpolation-filters="sRGB">
<feFlood flood-opacity="0" result="BackgroundImageFix"/>
<feBlend mode="normal" in="SourceGraphic" in2="BackgroundImageFix" result="shape"/>
<feColorMatrix in="SourceAlpha" type="matrix" values="0 0 0 0 0 0 0 0 0 0 0 0 0 0 0 0 0 0 127 0" result="hardAlpha"/>
<feOffset dy="4"/>
<feGaussianBlur stdDeviation="5"/>
<feComposite in2="hardAlpha" operator="arithmetic" k2="-1" k3="1"/>
<feColorMatrix type="matrix" values="0 0 0 0 0 0 0 0 0 0 0 0 0 0 0 0 0 0 0.25 0"/>
<feBlend mode="normal" in2="shape" result="effect1_innerShadow_337_1068"/>
</filter>
</defs>
</svg>
