<svg width="150" height="151" viewBox="0 0 150 151" fill="none" xmlns="http://www.w3.org/2000/svg">
<circle cx="75" cy="76" r="75" fill="white"/>
<circle cx="75" cy="76" r="52.5" fill="#D9D9D9"/>
<circle cx="75" cy="76" r="15" fill="black"/>
<circle cx="75" cy="76" r="52.5" fill="#C839BE"/>
<path fill-rule="evenodd" clip-rule="evenodd" d="M75 128.5C103.995 128.5 127.5 104.995 127.5 76C127.5 47.0051 103.995 23.5 75 23.5C66.5375 23.5 58.5427 25.5022 51.4634 29.0588C60.3358 31.8906 66.75 40.0839 66.75 49.75C66.75 61.7622 56.8443 71.5 44.625 71.5C36.117 71.5 28.7307 66.7792 25.0287 59.8567C23.3869 64.9426 22.5 70.3678 22.5 76C22.5 104.995 46.0051 128.5 75 128.5Z" fill="#9F2797"/>
<path d="M2.25044 84.25C2.25044 83.0769 1.56047 78.1717 4.12544 80.1667C7.74679 82.9833 5.56266 78.8018 7.50044 76.75C8.53058 75.6593 11.1218 75.6785 12.3754 76.375C14.8212 77.7338 15.3984 72.9083 15.7504 71.5" stroke="#AA2D2D" stroke-width="3" stroke-linecap="round"/>
<path d="M10.4999 40.75C10.4999 41.4202 10.1679 46.3059 10.6666 46.4167C12.7516 46.88 12.6481 45.1345 13.8749 47.8333C14.8802 50.045 16.428 48.4062 17.6249 47.0833C19.5317 44.9758 19.7827 44.5 22.4999 44.5" stroke="#AA2D2D" stroke-width="3" stroke-linecap="round"/>
<path d="M31.4997 17.5C31.3029 20.2542 28.9202 22.3612 30.708 24C31.6628 24.8753 31.4997 26.3761 31.4997 27.5417C31.4997 30.0994 33.2094 31.9034 34.4997 34" stroke="#AA2D2D" stroke-width="3" stroke-linecap="round"/>
<path d="M48.0007 7.75C53.3065 7.75 46.5769 11.1716 44.4174 12.6667C42.0812 14.284 47.859 14.5104 48.7507 15.625C49.5437 16.6163 49.0214 19.2381 49.9174 19.75C50.9534 20.342 54.3063 21.4722 51.7507 22.75" stroke="#AA2D2D" stroke-width="3" stroke-linecap="round"/>
<path d="M72.7501 1.75C75.2756 1.89856 79.5409 3.05053 76.0835 5.125C73.627 6.59886 68.5661 6.724 71.2501 10.75" stroke="#AA2D2D" stroke-width="3" stroke-linecap="round"/>
<path d="M75.75 6.25C77.2498 6.43748 80.3675 10.235 81 11.5" stroke="#AA2D2D" stroke-width="3" stroke-linecap="round"/>
<path d="M100.5 7C100.5 11.8991 103.598 13.2174 97.5 15.25" stroke="#AA2D2D" stroke-width="3" stroke-linecap="round"/>
<path d="M114 14.5C114.112 16.4074 116.577 18.0243 114.75 19.75C113.795 20.652 110.496 22 109.125 22C104.166 22 106.663 25 110.25 25" stroke="#AA2D2D" stroke-width="3" stroke-linecap="round"/>
<path d="M129 25C129 26.0265 129.591 29.3259 128.833 30.0833C127.654 31.2629 127.243 29.1586 126 31.3333C123.094 36.4184 117.75 20.3886 117.75 30.25" stroke="#AA2D2D" stroke-width="3" stroke-linecap="round"/>
<path d="M6 103.75C7.238 103.888 7.65072 106.471 8.08333 106.417C8.34998 106.383 8.36989 104.122 8.41667 103.917C8.71653 102.597 9.52287 101.393 10.3333 100.333C11.9613 98.2044 15.6902 100 18 100" stroke="#AA2D2D" stroke-width="3" stroke-linecap="round"/>
<path d="M17.2497 121C17.2497 120.107 16.6067 116.5 17.9997 116.5C19.8922 116.5 20.1421 120.167 21.3747 120.167C22.2508 120.167 22.6986 118.247 23.6247 118.042C25.0719 117.72 26.3125 117.729 27.7497 117.25" stroke="#AA2D2D" stroke-width="3" stroke-linecap="round"/>
<path d="M38.9991 139C34.3544 139 32.6548 134.458 35.5825 130.583C37.1465 128.513 42.7491 125.632 42.7491 123.25" stroke="#AA2D2D" stroke-width="3" stroke-linecap="round"/>
<path d="M26.25 117.25C26.1404 116.264 25.6977 115.238 25.5 114.25" stroke="#AA2D2D" stroke-width="3" stroke-linecap="round"/>
<path d="M40.5 129.25H47.25" stroke="#AA2D2D" stroke-width="3" stroke-linecap="round"/>
<path d="M18 47.5C18 50.091 19.7417 52.75 22.5 52.75" stroke="#AA2D2D" stroke-width="3" stroke-linecap="round"/>
<path d="M54.7497 148C54.7497 145.007 54.2557 141.613 54.7914 138.667C55.4016 135.311 59.0378 136.864 57.7497 133" stroke="#AA2D2D" stroke-width="3" stroke-linecap="round"/>
<path d="M69.7503 148.75C69.7503 146.75 70.3644 140.856 67.8753 139.75C63.7169 137.902 69.3128 135.375 69.7503 134.5" stroke="#AA2D2D" stroke-width="3" stroke-linecap="round"/>
<path d="M69.75 140.5C72.4649 140.198 72.1245 136.75 75.75 136.75" stroke="#AA2D2D" stroke-width="3" stroke-linecap="round"/>
<path d="M87.0007 148.75C87.0007 146.315 78.2542 141.873 84.0007 139" stroke="#AA2D2D" stroke-width="3" stroke-linecap="round"/>
<path d="M108 143.5C105.818 143.5 103.5 144.283 103.5 141.542C103.5 140.328 104.239 136.51 102.708 136C99.3948 134.895 97.228 131.296 94.5 129.25" stroke="#AA2D2D" stroke-width="3" stroke-linecap="round"/>
<path d="M125.25 130.75C121.036 130.75 123.188 126.939 121.125 124.417C119.049 121.88 116.25 121.71 116.25 118" stroke="#AA2D2D" stroke-width="3" stroke-linecap="round"/>
<path d="M125.25 108.25C125.25 111.869 130.989 106.499 133.333 108.417C135.469 110.164 138.221 112 141 112" stroke="#AA2D2D" stroke-width="3" stroke-linecap="round"/>
<path d="M147.75 91.75C147.359 95.2668 144.3 90.463 143.667 89.5417C142.406 87.7073 141.162 88 139.125 88C136.904 88 136.546 84.203 134.833 83.0833C133.281 82.0681 130.605 83.7097 129.75 82" stroke="#AA2D2D" stroke-width="3" stroke-linecap="round"/>
<path d="M135 106C132.315 106 133.5 99.2131 133.5 97" stroke="#AA2D2D" stroke-width="3" stroke-linecap="round"/>
<path d="M148.5 60.25C146.216 60.0216 142.648 53.6855 141 55.3333C139.063 57.27 138.54 63.7898 135.75 61" stroke="#AA2D2D" stroke-width="3" stroke-linecap="round"/>
<path d="M140.25 39.25C140.25 41.3066 140.434 45.5348 138.417 41.5C137.192 39.0508 135.399 40.6362 133.5 42.25C132.768 42.8725 130.462 43.6364 129.75 43.4583C128.648 43.1827 129.459 50.6674 128.25 48.25" stroke="#AA2D2D" stroke-width="3" stroke-linecap="round"/>
<circle cx="75" cy="76" r="71" stroke="black" stroke-width="8"/>
<circle cx="75" cy="76" r="18.75" fill="black"/>
</svg>
