<svg width="188" height="158" viewBox="0 0 188 158" fill="none" xmlns="http://www.w3.org/2000/svg">
<path d="M90.3044 15.4739C91.3925 9.49697 97.1198 5.5338 103.097 6.62189L111.951 8.23382C117.649 9.27115 120.498 15.7354 117.419 20.6407L88.5883 66.5661C87.3847 68.4835 84.7993 68.9626 82.9885 67.6039C81.8161 66.7242 81.2414 65.2576 81.5039 63.8156L90.3044 15.4739Z" fill="#462606" stroke="black" stroke-width="8"/>
<path d="M85 97.1548C85 123.011 66.442 143.155 44.5 143.155C22.558 143.155 4 123.011 4 97.1548C4 71.2987 22.558 51.1548 44.5 51.1548C66.442 51.1548 85 71.2987 85 97.1548Z" fill="#DA7400" stroke="black" stroke-width="8"/>
<path d="M184 97.1548C184 123.29 166.545 143.155 146.5 143.155C126.455 143.155 109 123.29 109 97.1548C109 71.0197 126.455 51.1548 146.5 51.1548C166.545 51.1548 184 71.0197 184 97.1548Z" fill="#DA7400" stroke="black" stroke-width="8"/>
<path d="M157 97.1548C157 111.555 152.591 124.44 145.652 133.636C138.714 142.831 129.429 148.155 119.5 148.155C109.571 148.155 100.286 142.831 93.3481 133.636C86.4091 124.44 82 111.555 82 97.1548C82 82.7544 86.4091 69.8695 93.3481 60.6732C100.286 51.479 109.571 46.1548 119.5 46.1548C129.429 46.1548 138.714 51.479 145.652 60.6732C152.591 69.8695 157 82.7544 157 97.1548Z" fill="#DA7400" stroke="black" stroke-width="8"/>
<path d="M112 97.1548C112 125.934 92.1816 148.155 69 148.155C45.8184 148.155 26 125.934 26 97.1548C26 68.3754 45.8184 46.1548 69 46.1548C92.1816 46.1548 112 68.3754 112 97.1548Z" fill="#DA7400" stroke="black" stroke-width="8"/>
<path d="M125 99.6548C125 114.922 121.225 128.552 115.332 138.234C109.396 147.986 101.736 153.155 94 153.155C86.2636 153.155 78.6042 147.986 72.6681 138.234C66.7751 128.552 63 114.922 63 99.6548C63 84.3871 66.7751 70.7573 72.6681 61.076C78.6042 51.3237 86.2636 46.1548 94 46.1548C101.736 46.1548 109.396 51.3237 115.332 61.076C121.225 70.7573 125 84.3871 125 99.6548Z" fill="#DA7400" stroke="black" stroke-width="8"/>
</svg>
