<svg width="451" height="436" viewBox="0 0 451 436" fill="none" xmlns="http://www.w3.org/2000/svg">
<path d="M181.87 36.0524C213.535 5.45523 251.316 -2.44964 286.428 5.25138C321.622 12.9702 354.218 36.399 375.164 68.6172C383.652 81.6727 392.134 93.881 400.127 105.385C403.775 110.634 407.32 115.737 410.717 120.707C421.597 136.62 430.98 151.197 437.606 165.153C444.226 179.095 448.027 192.284 447.864 205.422C447.701 218.52 443.596 231.771 434.063 245.853C417.574 270.209 392.908 268.975 370.614 266.55C369.411 266.419 368.213 266.285 367.024 266.151C362.771 265.674 358.624 265.209 354.762 264.963C349.819 264.648 345.124 264.674 341.007 265.55C336.848 266.434 333.145 268.217 330.392 271.5C327.654 274.763 326.083 279.235 325.64 285.065C324.939 294.282 328.261 301.603 333.19 307.933C337.122 312.983 342.21 317.553 347.148 321.989C348.289 323.013 349.421 324.03 350.529 325.044C356.558 330.561 361.988 336.076 365.239 342.64C368.43 349.08 369.592 356.683 366.732 366.559C365.34 371.363 363.152 373.957 360.598 375.258C357.974 376.594 354.487 376.811 350.037 375.851C341.056 373.912 329.555 367.502 316.946 359.531C312.423 356.671 307.76 353.612 303.063 350.53C294.87 345.156 286.574 339.713 278.732 335.139C272.528 331.521 266.493 328.375 260.865 326.163C255.262 323.96 249.891 322.613 245.059 322.756C238.66 322.945 233.602 324.183 229.644 326.417C225.649 328.672 222.937 331.851 221.11 335.62C217.62 342.817 217.323 352.338 217.027 361.834L217.013 362.305C216.703 372.214 216.356 382.402 213.114 391.666C209.924 400.785 203.903 409.054 192.012 415.02C166.314 427.912 125.93 433.628 89.2529 432.581C70.9526 432.058 53.7182 429.855 39.8427 426.089C25.8276 422.285 15.757 417.023 11.1442 410.77C3.9061 400.96 2.18626 391.902 3.48834 382.806C4.81549 373.534 9.29267 364.099 14.8189 353.61C15.7439 351.854 16.6963 350.073 17.664 348.264C28.1426 328.669 40.3972 305.754 38.6282 276.018C38.0884 266.945 33.9789 258.241 28.9239 249.768C26.6073 245.886 24.0474 241.981 21.4874 238.077C21.2436 237.705 20.9997 237.333 20.7561 236.961C17.9418 232.666 15.1458 228.358 12.6075 223.961C7.5244 215.155 3.58739 206.175 2.69196 196.638C1.80371 187.178 3.88968 176.96 11.2318 165.613C24.5502 145.029 48.4387 130.481 78.7986 111.997C108.995 93.6123 145.11 71.5727 181.87 36.0524Z" fill="black" stroke="black" stroke-width="5"/>
</svg>
