<svg width="225" height="234" viewBox="0 0 225 234" fill="none" xmlns="http://www.w3.org/2000/svg">
<path d="M32.9229 35.654L105.108 113.827L0.979134 116V118L105.108 120.173L32.9229 198.346L34.3645 199.732L109.412 124.726L111.5 233.019H113.5L115.588 124.726L190.635 199.732L192.077 198.346L119.892 120.173L224.021 118V116L119.892 113.827L192.077 35.654L190.635 34.2683L115.588 109.274L113.5 0.980721H111.5L109.412 109.274L34.3645 34.2683L32.9229 35.654Z" fill="white" stroke="white" stroke-width="2"/>
<path d="M78.9506 80.9231C78.9506 80.9231 87.5903 95.5851 85.156 103.914C83.0267 111.2 68.0003 118.909 68.0003 118.909" stroke="white" stroke-width="5"/>
<path d="M61.7436 62.8624C61.7436 62.8624 65.4322 84.5986 60.0068 96.4101C55.2612 106.741 37.1559 116.741 37.1559 116.741" stroke="white" stroke-width="5"/>
<path d="M65.0492 117.034C65.0492 117.034 81.1142 120.65 84.9994 127.82C88.3978 134.092 82.8768 149.627 82.8768 149.627" stroke="white" stroke-width="5"/>
<path d="M40.1109 116.438C40.1109 116.438 58.0929 129.194 62.6121 141.381C66.565 152.041 60.8392 171.915 60.8392 171.915" stroke="white" stroke-width="5"/>
<path d="M81.5842 146.969C81.5842 146.969 94.522 142.796 101.289 145.788C107.209 148.405 112.459 160.506 112.459 160.506" stroke="white" stroke-width="5"/>
<path d="M61.2121 171.108C61.2121 171.108 81.9105 167.103 92.9635 172.293C102.632 176.833 111.635 194.624 111.635 194.624" stroke="white" stroke-width="5"/>
<path d="M112.379 161.273C112.379 161.273 118.028 148.908 124.803 145.932C130.729 143.33 143.203 147.619 143.203 147.619" stroke="white" stroke-width="5"/>
<path d="M113.677 194.695C113.677 194.695 124.688 176.716 135.977 172.061C145.851 167.988 165.057 173.348 165.057 173.348" stroke="white" stroke-width="5"/>
<path d="M144.479 148.061C144.479 148.061 140.187 135.162 143.117 128.368C145.68 122.425 157.732 117.064 157.732 117.064" stroke="white" stroke-width="5"/>
<path d="M166.487 173.449C166.487 173.449 163.148 150.63 168.828 138.04C173.795 127.027 192.232 116.022 192.232 116.022" stroke="white" stroke-width="5"/>
<path d="M110.985 65.2313C110.985 65.2313 109.28 81.2698 102.769 85.6115C97.0731 89.4092 81.4039 85.1309 81.4039 85.1309" stroke="white" stroke-width="5"/>
<path d="M112.267 37.9315C112.267 37.9315 101.27 57.0403 89.5656 62.693C79.3278 67.6373 59.0004 63.8186 59.0004 63.8186" stroke="white" stroke-width="5"/>
<path d="M147.102 79.9264C147.102 79.9264 133.512 87.7589 126.235 84.8793C119.871 82.3606 113.908 66.9456 113.908 66.9456" stroke="white" stroke-width="5"/>
<path d="M162.242 67.7258C162.242 67.7258 141.509 69.6391 130.525 63.175C120.917 57.5209 112.131 38.402 112.131 38.402" stroke="white" stroke-width="5"/>
<path d="M158.71 117.66C158.71 117.66 144.223 110.064 142.226 101.815C140.479 94.5996 149.475 80.1214 149.475 80.1214" stroke="white" stroke-width="5"/>
<path d="M195.833 116.706C195.833 116.706 165.94 111.576 161.73 97.5C158.048 85.1876 161.73 66.2144 161.73 66.2144" stroke="white" stroke-width="5"/>
</svg>
