<svg width="28" height="28" viewBox="0 0 28 28" fill="none" xmlns="http://www.w3.org/2000/svg">
<path d="M11.8368 4.74797C12.5176 2.65238 15.4824 2.65238 16.1632 4.74797C17.1371 7.74526 19.9302 9.77457 23.0818 9.77457C25.2852 9.77457 26.2014 12.5942 24.4187 13.8893C21.8691 15.7417 20.8022 19.0253 21.7761 22.0225C22.457 24.1181 20.0585 25.8607 18.2759 24.5656C15.7262 22.7132 12.2738 22.7132 9.72411 24.5656C7.9415 25.8607 5.543 24.1181 6.2239 22.0225C7.19778 19.0253 6.1309 15.7417 3.58126 13.8893C1.79864 12.5942 2.71478 9.77457 4.91822 9.77457C8.06976 9.77457 10.8629 7.74526 11.8368 4.74797Z" fill="white" stroke="black" stroke-width="5"/>
</svg>
