<svg width="30" height="45" viewBox="0 0 30 45" fill="none" xmlns="http://www.w3.org/2000/svg">
<path d="M13.8356 5.25702C14.156 4.83334 14.4585 4.44086 14.7384 4.08284C15.024 4.48574 15.3349 4.92995 15.6658 5.41085C17.3308 7.83076 19.4865 11.1568 21.472 14.8061C23.4668 18.4728 25.2381 22.3726 26.1959 25.9536C27.1739 29.6106 27.1844 32.4942 26.2419 34.4539C24.8345 37.3804 23.2092 39.3595 21.3989 40.6142C19.6124 41.8524 17.4817 42.5 14.8425 42.5C9.8441 42.4999 6.05267 39.8793 3.44317 34.4538C2.2572 31.988 2.22605 28.8322 3.145 25.1841C4.05773 21.5608 5.83698 17.7428 7.87041 14.2044C9.89443 10.6823 12.1146 7.53257 13.8356 5.25702Z" stroke="white" stroke-width="5"/>
</svg>
