<svg width="72" height="59" viewBox="0 0 72 59" fill="none" xmlns="http://www.w3.org/2000/svg">
<path d="M42.238 17.9478C44.1892 14.767 48.8108 14.767 50.762 17.9478L63.9127 39.3856C65.9564 42.7171 63.5591 47 59.6507 47H33.3493C29.4409 47 27.0436 42.7171 29.0873 39.3855L42.238 17.9478Z" fill="white"/>
<path d="M24.4316 26.871C26.3915 24.8741 29.6085 24.8741 31.5684 26.871L43.9037 39.4388C47.0082 42.6019 44.7673 47.9412 40.3353 47.9412H15.6647C11.2327 47.9412 8.99179 42.6019 12.0963 39.4388L24.4316 26.871Z" fill="white"/>
<rect x="3.5" y="2.5" width="63" height="45" rx="7.5" stroke="white" stroke-width="5"/>
<path d="M25.5 16.6471C25.5 20.3237 22.2871 23.5588 18 23.5588C13.7129 23.5588 10.5 20.3237 10.5 16.6471C10.5 12.9704 13.7129 9.73529 18 9.73529C22.2871 9.73529 25.5 12.9704 25.5 16.6471Z" stroke="white" stroke-width="5"/>
</svg>
