<svg width="40" height="50" viewBox="0 0 40 50" fill="none" xmlns="http://www.w3.org/2000/svg">
<path d="M14.5213 25C14.5213 28.4107 11.8 31.1207 8.51064 31.1207C5.22124 31.1207 2.5 28.4107 2.5 25C2.5 21.5892 5.22124 18.8793 8.51064 18.8793C11.8 18.8793 14.5213 21.5892 14.5213 25Z" stroke="white" stroke-width="5"/>
<path d="M37.4998 41.3793C37.4998 44.79 34.7786 47.5 31.4892 47.5C28.1998 47.5 25.4785 44.79 25.4785 41.3793C25.4785 37.9686 28.1998 35.2586 31.4892 35.2586C34.7786 35.2586 37.4998 37.9686 37.4998 41.3793Z" stroke="white" stroke-width="5"/>
<path d="M37.4998 8.62069C37.4998 12.0314 34.7786 14.7414 31.4892 14.7414C28.1998 14.7414 25.4785 12.0314 25.4785 8.62069C25.4785 5.20995 28.1998 2.5 31.4892 2.5C34.7786 2.5 37.4998 5.20995 37.4998 8.62069Z" stroke="white" stroke-width="5"/>
<line y1="-2.5" x2="16.5936" y2="-2.5" transform="matrix(0.820621 -0.571472 0.561588 0.827417 13.6172 23.2758)" stroke="white" stroke-width="5"/>
<line y1="-2.5" x2="16.5867" y2="-2.5" transform="matrix(0.840062 0.542491 -0.532669 0.846323 10.0537 29.5526)" stroke="white" stroke-width="5"/>
</svg>
