<svg width="150" height="116" viewBox="0 0 150 116" fill="none" xmlns="http://www.w3.org/2000/svg">
<path d="M132.795 77.3814C132.795 101.013 105.881 115.567 76.726 115.567C47.571 115.567 18.0342 101.013 18.0342 77.3814C18.0342 53.7495 47.571 29.9887 76.726 29.9887C105.881 29.9887 132.795 53.7495 132.795 77.3814Z" fill="black"/>
<circle cx="49.8384" cy="69.5121" r="11.4761" fill="white"/>
<circle cx="100.661" cy="69.5121" r="11.4761" fill="white"/>
<circle cx="100.661" cy="69.5121" r="6.55775" fill="black"/>
<circle cx="49.838" cy="69.5121" r="6.55775" fill="black"/>
<path d="M76.9277 91.5214C76.1391 92.7355 74.3618 92.7355 73.5732 91.5214L70.868 87.3565C70.0038 86.0259 70.9587 84.267 72.5453 84.267H77.9556C79.5422 84.267 80.4971 86.0259 79.6329 87.3565L76.9277 91.5214Z" fill="#EFA6A6"/>
<path d="M19.2328 17.34C18.9759 15.7198 20.6715 14.4964 22.1281 15.251L54.868 32.2115C56.1913 32.8971 56.3269 34.7372 55.1183 35.6093L28.1528 55.0659C26.9442 55.938 25.2406 55.2293 25.0072 53.7573L19.2328 17.34Z" fill="black"/>
<path d="M127.503 15.076C128.934 14.2741 130.669 15.4413 130.465 17.0691L125.887 53.656C125.702 55.1348 124.023 55.899 122.786 55.067L95.1978 36.5043C93.9612 35.6723 94.0364 33.8287 95.3366 33.1001L127.503 15.076Z" fill="black"/>
</svg>
